# xmcd
#
# Track frame offsets:
#	150
#	21627
#	43700
#	67360
#	87795
#	108027
#	130080
#	147447
#	167677
#	189142
#
# Disc length: 2800 seconds
#
# Revision: 1
# Processed by: cddbd v1.5.2PL0 Copyright (c) Steve Scherf et al.
# Submitted via: EZCDAudioConverter 8.0.2.1
#
DISCID=880aee0a
DTITLE=Nguyễn Hưng - Chỉ Riêng Mình Ta
DYEAR=1998
DGENRE=World Pop
TTITLE0=Chỉ Riêng Mình Ta
TTITLE1=Mùa đông
TTITLE2=Lối cũ ta về
TTITLE3=Kiếp phiêu bồng
TTITLE4=Một lần nào cho tôi gặp lại em
TTITLE5=Sao người nỡ quên
TTITLE6=Con gái bây giờ
TTITLE7=Cà phê một mình
TTITLE8=Nỗi buồn sa mạc
TTITLE9=Mung lung
EXTD=
EXTT0=
EXTT1=
EXTT2=
EXTT3=
EXTT4=
EXTT5=
EXTT6=
EXTT7=
EXTT8=
EXTT9=
PLAYORDER=
